<svg xmlns="http://www.w3.org/2000/svg" width="256" height="256" viewBox="0 0 256 256">
  <defs>
    <style>
      .cls-1 {
        fill: #fff;
        fill-rule: evenodd;
      }
    </style>
  </defs>
  <path id="形状_3" data-name="形状 3" class="cls-1" d="M143.884,35.694c8.3,4.447,15.915,13.182,17.607,19.469,1.808,6.722,1.853,26.886,1.853,38.012,0,31.658,2.882,47.087-17.607,59.336-3.955,2.364-11.808,6.335-18.533,5.562-34.087-3.916-32.436-29.08-32.434-66.752,0-11.837-1.911-28.228,1.853-37.084,3.648-8.584,12.293-16.336,21.314-19.469A39.706,39.706,0,0,1,143.884,35.694ZM136.47,184.959v21.324h33.361c2.127,3.637,2.876,6.428,2.78,12.98-3.284,2.068-4.979,2.871-11.12,2.781-5.246,2.73-14.333-1.322-22.24,0-5.318.889-29.014,0.763-37.068,0-6.98-.661-12.565,2.181-16.68-0.927-4.726-4.8-1.85-10.618.927-14.834h33.36V184.959c-27.236-1.692-47.26-23.435-53.747-46.355-2.123-7.5-.416-16.644,0-24.105,3.94-2.969,4.377-4.7,12.047-4.636,0.946,0.746.254,0.329,1.853,0.927q1.853,3.71,3.707,7.417v13.907c2.791,11.6,9.213,22.706,17.606,28.741a58.366,58.366,0,0,0,15.754,7.416c27.763,8.318,48.889-12.865,54.674-30.594,2.765-8.473,1.3-17.221,2.78-25.032,5.121-3.44,7.2-3.687,13.9-1.855C200.33,148.871,169.338,182.932,136.47,184.959Z"/>
</svg>
